PathFileType	4	(X/Y/Z)	D:\TRACE\spot_10-12-23\spot_arm_body_motion_3_8-v60.trc
DataRate	CameraRate	NumFrames	NumMarkers	Units	OrigDataRate	OrigDataStartFrame	OrigNumFrames
100.00	100.00	      24	9	mm	100.00	6126	      7000
Frame#	Time	front left toe			Front right toe			aft left toe			aft right toe			Arm			FL body			FR body			AL Body			AR Body			
		X1	Y1	Z1	X2	Y2	Z2	X3	Y3	Z3	X4	Y4	Z4	X5	Y5	Z5	X6	Y6	Z6	X7	Y7	Z7	X8	Y8	Z8	X9	Y9	Z9	

6126	61.250	-132.70435	171.79488	-370.60413	265.29535	38.96370	-465.34354	-68.01019	8.31643	232.85667	283.85245	6.15596	141.42000	55.27280	843.62036	-701.79633	14.68902	607.92395	-448.61621	166.89374	614.23254	-456.36902	55.94067	550.23584	432.55878	206.75699	550.22290	427.68802	
6127	61.260	-131.18350	152.69664	-366.59616	266.22406	39.65744	-464.92239	-68.31805	7.92168	232.82239	283.74997	6.16679	141.58781	56.16543	845.32953	-700.25488	14.35903	608.68561	-447.90894	166.56447	614.77545	-455.40100	54.72679	549.62268	433.30576	204.96909	549.26862	428.47061	
6128	61.270	-130.39522	139.48195	-365.08865	266.96893	40.83788	-462.61124	-68.69885	7.44580	232.89682	283.43286	6.35247	141.95114	55.93872	846.06714	-699.00439	14.19342	609.36865	-447.29080	166.37207	615.45398	-454.47269	53.19796	548.62482	434.18478	203.49550	548.66071	429.31406	
6129	61.280	-129.82455	130.19113	-362.10989	266.07507	39.81728	-464.02423	-69.17245	7.14017	232.93019	283.11884	6.47593	142.20091	55.05380	846.33392	-698.29492	13.71274	610.05505	-446.92444	166.08818	615.84302	-453.41953	51.66647	547.67133	434.54099	201.61296	547.84406	430.19476	
6130	61.290	-130.23172	123.67950	-357.78961	265.18710	39.47530	-464.43893	-69.71233	6.98983	232.86226	282.60886	6.41595	142.40263	53.86369	845.72491	-698.05457	13.94414	610.30090	-445.91776	165.94888	616.71643	-452.71201	50.00873	546.94214	435.21750	199.81752	546.89563	430.98752	
6131	61.300	-131.74806	119.82954	-354.47949	264.91092	39.82957	-464.26413	-70.15015	6.94625	232.89548	281.98160	6.46723	142.49467	52.33842	844.85907	-697.83350	13.44506	610.68823	-445.09842	165.60951	617.08978	-451.77554	48.40371	546.14313	435.91190	198.44083	546.14838	431.47256	
6132	61.310	-134.77388	117.66763	-353.71930	264.53189	40.01414	-464.19067	-70.64243	6.88211	233.06299	281.51169	6.50039	142.48065	50.69534	843.86725	-698.28845	12.52372	611.03918	-444.49582	164.84337	617.38043	-451.03836	46.56175	545.58228	436.15366	197.31653	545.61877	433.12646	
6133	61.320	-137.22076	116.40975	-354.93414	263.87460	40.47159	-464.20807	-70.92716	6.78745	233.24231	281.26486	6.53744	142.57347	49.36722	842.86047	-698.53632	11.28499	611.33679	-443.87909	163.43190	617.35083	-450.43323	45.78080	545.26111	437.09076	196.14369	545.21759	433.30130	
6134	61.330	-139.42581	113.38389	-356.78897	263.38129	40.83135	-464.15854	-71.12202	6.75222	233.33391	281.10611	6.63626	142.61143	48.14224	841.96985	-699.24561	9.59812	611.60083	-443.17093	161.63600	617.35010	-449.88495	44.82388	544.98212	437.90546	194.83305	544.65033	433.86441	
6135	61.340	-142.01718	106.36468	-359.89792	262.65900	41.32768	-464.21191	-71.28176	6.74360	233.49469	280.81604	6.61113	142.72917	47.56585	841.20404	-699.64484	7.45632	611.61084	-442.49435	159.77100	617.67682	-449.51154	44.09465	544.68225	438.22897	194.31149	544.49677	434.07556	
6136	61.350	-143.74126	97.67515	-364.17340	262.14825	41.46639	-464.34927	-71.39868	6.75830	233.63474	280.48544	6.54603	142.69975	47.29373	840.69580	-699.87360	5.02540	611.54010	-441.90292	157.23482	617.45349	-448.81561	43.22461	544.60889	438.75919	193.82268	544.43530	434.54990	
6137	61.360	-144.80675	87.27358	-367.73328	261.69547	41.62957	-464.47580	-71.66869	6.76732	233.76367	280.18372	6.45155	142.74922	47.56741	840.32367	-700.35742	2.86506	611.18646	-441.09671	155.18523	617.33179	-448.35260	42.50877	544.46509	439.59848	192.66359	544.33667	435.01782	
6138	61.370	-145.44005	75.95190	-368.94666	261.12448	42.25412	-464.44104	-71.90170	6.71352	233.85019	279.84845	6.31444	142.69084	48.15206	840.31940	-700.79419	0.31443	611.06396	-440.64676	152.47340	617.04388	-447.89847	41.40066	543.93921	439.91086	191.55429	544.02869	435.15482	
6139	61.380	-145.27257	63.53811	-369.32736	260.54202	42.63155	-464.34970	-72.20730	6.58570	234.00708	279.55746	6.28642	142.79346	48.91866	840.44550	-701.05243	-2.17356	610.74646	-440.35144	150.03996	617.41223	-447.94791	39.72766	543.78931	440.29791	190.16402	544.03302	435.33215	
6140	61.390	-147.25153	53.16201	-373.42200	259.80930	42.67969	-464.57468	-72.43510	6.53783	234.16405	279.21515	6.39068	142.89813	49.52138	840.74371	-701.14386	-4.55294	610.17261	-439.99152	147.32980	617.09174	-447.73553	38.37312	543.77795	440.42191	188.92256	544.16864	435.80414	
6141	61.400	-148.31705	46.04240	-381.29660	259.44016	42.88414	-464.43423	-72.79510	6.41167	234.29359	278.95602	6.49563	142.97902	50.11003	840.95520	-701.42041	-7.11073	609.76038	-439.81290	144.98506	616.82770	-448.14035	36.31546	543.49176	440.61093	186.45264	544.06665	435.24219	
6142	61.410	-149.31706	39.59461	-390.07281	259.51434	43.10641	-464.12360	-73.26226	6.16239	234.25760	278.86276	6.46620	143.08197	50.36427	841.16443	-701.53503	-9.43975	609.40045	-439.71451	142.96498	616.39691	-447.90863	34.08655	543.12134	440.55789	184.36977	543.71216	435.39636	
6143	61.420	-151.01791	38.37584	-389.11911	259.48868	43.15527	-463.83792	-73.61063	6.20943	234.11967	278.69666	6.20418	143.03862	50.38042	841.40546	-701.48639	-11.64873	609.66425	-439.99597	140.38455	616.55457	-447.88232	31.13312	542.65564	440.72171	181.43794	543.24304	435.54810	
6144	61.430	-152.21025	38.97428	-386.20740	258.45456	44.06535	-464.35193	-74.52183	5.46982	234.44698	278.70383	6.53238	142.90680	49.99895	841.74353	-701.26263	-13.92189	610.79688	-439.72440	138.19791	617.50092	-447.55203	28.32743	541.98840	441.10880	178.51559	542.55017	435.49948	
6145	61.440	-151.82993	39.14121	-388.13348	257.10449	45.18040	-464.04007	-76.54649	3.14815	234.55405	276.03976	9.25778	142.75958	49.45577	842.23450	-700.85797	-16.30522	612.31714	-439.71008	135.94698	618.40906	-447.38461	26.21485	542.41431	440.90134	176.38322	541.88220	435.24377	
6146	61.450	-152.19954	39.41274	-386.97049	256.23618	45.26616	-464.37473	-76.72829	3.30202	234.87068	274.55197	9.46336	143.52988	48.83692	843.00800	-700.19647	-18.48307	613.83881	-439.66855	134.09795	619.01465	-447.50580	23.53982	542.89587	440.86154	173.34689	542.06055	435.36896	
6147	61.460	-152.54707	39.30400	-387.88556	258.14673	46.37486	-463.43607	-77.20341	3.40006	234.14034	275.10419	8.36470	143.71747	48.23622	843.55518	-699.77362	-20.20859	615.38483	-439.88010	131.92052	619.98309	-447.40848	20.55927	543.58765	440.41879	170.51978	542.30701	435.42065	
6148	61.470	-152.80708	39.30100	-387.69415	257.84818	46.83005	-462.88885	-77.51572	3.07528	234.52440	274.78793	8.46955	143.43161	48.10329	843.80231	-699.58008	-21.89778	616.83942	-440.06882	130.59518	620.82422	-447.52716	18.53090	544.57227	440.21378	168.04803	542.51910	435.53619	
6149	61.480	-153.13681	39.53725	-387.74854	257.29141	46.78347	-463.13419	-77.96038	2.88952	234.41579	273.97290	8.98967	143.17679	47.78079	844.22943	-699.54498	-23.21807	618.28149	-440.38028	129.05937	621.87708	-447.72781	16.45320	545.71698	439.73663	166.00096	543.27869	435.26471	
